<?xml version="1.0" encoding="utf-8"?>
<!-- Generator: Adobe Illustrator 16.0.0, SVG Export Plug-In . SVG Version: 6.00 Build 0)  -->
<!DOCTYPE svg PUBLIC "-//W3C//DTD SVG 1.1//EN" "http://www.w3.org/Graphics/SVG/1.1/DTD/svg11.dtd">
<svg version="1.1" id="Layer_1" xmlns="http://www.w3.org/2000/svg" xmlns:xlink="http://www.w3.org/1999/xlink" x="0px" y="0px"
	 width="144px" height="144px" viewBox="0 0 144 144" enable-background="new 0 0 144 144" xml:space="preserve">
<g>
	<path fill="#FFFFFF" d="M84.57,121.5c-2.375-0.012-4.613-0.943-6.304-2.625c-1.7-1.685-2.636-3.92-2.636-6.295
		c0-2.334,0.909-4.52,2.559-6.154l25.693-25.563H18.644c-4.917,0-8.916-3.977-8.916-8.864c0-4.887,4-8.863,8.916-8.863h85.239
		l-25.68-25.535c-1.66-1.651-2.576-3.852-2.578-6.195c-0.003-2.372,0.927-4.608,2.617-6.296c1.681-1.671,3.923-2.598,6.315-2.611
		c2.365,0,4.586,0.91,6.248,2.562c0,0,18.845,18.777,40.853,40.677c1.686,1.676,2.614,3.9,2.614,6.261
		c0,2.371-0.929,4.599-2.614,6.275c-22.008,21.898-40.865,40.688-40.865,40.688C89.147,120.598,86.938,121.499,84.57,121.5
		L84.57,121.5z"/>
	<path d="M84.557,23c2.234,0,4.329,0.858,5.896,2.416c0,0,18.845,18.777,40.854,40.677c1.591,1.582,2.467,3.679,2.467,5.907
		c0,2.236-0.876,4.338-2.467,5.92c-22.009,21.898-40.866,40.688-40.865,40.688C88.889,120.15,86.804,121,84.572,121
		c-2.242-0.011-4.356-0.892-5.954-2.48c-1.604-1.59-2.487-3.699-2.487-5.939c0-2.199,0.856-4.259,2.412-5.801l24.833-24.707
		l1.718-1.709h-2.423H18.644c-4.641,0-8.416-3.752-8.416-8.364c0-4.611,3.775-8.363,8.416-8.363h84.027h2.424l-1.719-1.709
		l-24.82-24.681c-1.565-1.557-2.429-3.631-2.431-5.841c-0.002-2.238,0.875-4.349,2.469-5.94C80.181,23.889,82.298,23.013,84.557,23
		 M84.555,22c-2.41,0.013-4.821,0.923-6.666,2.757c-3.666,3.661-3.691,9.565-0.038,13.199l24.82,24.681H18.644
		c-5.198,0-9.416,4.194-9.416,9.363s4.218,9.364,9.416,9.364h84.027L77.838,106.07c-3.641,3.607-3.604,9.513,0.076,13.159
		c1.845,1.835,4.255,2.759,6.653,2.771c2.385,0,4.771-0.886,6.578-2.684c0,0,18.857-18.789,40.865-40.688
		c1.845-1.834,2.762-4.232,2.762-6.629s-0.917-4.782-2.762-6.616c-22.008-21.899-40.853-40.677-40.853-40.677
		C89.338,22.898,86.952,22,84.555,22L84.555,22z"/>
</g>
</svg>
