<?xml version="1.0" encoding="utf-8"?>
<!-- Generator: Adobe Illustrator 16.0.0, SVG Export Plug-In . SVG Version: 6.00 Build 0)  -->
<!DOCTYPE svg PUBLIC "-//W3C//DTD SVG 1.1//EN" "http://www.w3.org/Graphics/SVG/1.1/DTD/svg11.dtd">
<svg version="1.1" id="Layer_1" xmlns="http://www.w3.org/2000/svg" xmlns:xlink="http://www.w3.org/1999/xlink" x="0px" y="0px"
	 width="144px" height="144px" viewBox="0 0 144 144" enable-background="new 0 0 144 144" xml:space="preserve">
<g>
	<path fill="#FFFFFF" d="M59.443,121.5c-2.368-0.001-4.586-0.91-6.249-2.562c0,0-18.844-18.777-40.853-40.677
		C10.656,76.586,9.728,74.362,9.728,72c0-2.37,0.928-4.598,2.614-6.275C34.35,43.828,53.208,25.037,53.208,25.037
		c1.646-1.636,3.856-2.537,6.225-2.537c2.372,0.012,4.611,0.944,6.301,2.625c1.7,1.685,2.636,3.92,2.636,6.295
		c0,2.333-0.909,4.519-2.559,6.155L40.118,63.137h85.239c4.916,0,8.916,3.976,8.916,8.864c0,4.887-4,8.863-8.916,8.863H40.117
		l25.68,25.535c1.66,1.651,2.576,3.852,2.578,6.195c0.002,2.372-0.927,4.607-2.617,6.296C64.078,120.56,61.834,121.487,59.443,121.5
		L59.443,121.5z"/>
	<path d="M59.431,23c2.241,0.012,4.354,0.893,5.951,2.481c1.604,1.589,2.487,3.698,2.487,5.939c0,2.199-0.856,4.259-2.412,5.801
		L40.624,61.928l-1.718,1.709h2.423h84.027c4.641,0,8.416,3.752,8.416,8.364c0,4.611-3.775,8.363-8.416,8.363H41.329h-2.424
		l1.719,1.709l24.82,24.681c1.565,1.557,2.429,3.632,2.431,5.841c0.002,2.238-0.875,4.349-2.469,5.94
		c-1.587,1.578-3.707,2.454-5.961,2.466c-2.235,0-4.331-0.858-5.897-2.415c0,0-18.845-18.778-40.854-40.678
		c-1.591-1.582-2.467-3.68-2.467-5.907c0-2.236,0.876-4.338,2.467-5.92C34.703,44.182,53.561,25.392,53.56,25.392
		C55.111,23.85,57.196,23,59.431,23 M59.433,22c-2.385,0-4.771,0.886-6.578,2.683c0,0-18.857,18.79-40.865,40.688
		C10.145,67.206,9.228,69.604,9.228,72s0.917,4.782,2.762,6.616c22.008,21.899,40.853,40.677,40.853,40.677
		c1.82,1.809,4.206,2.707,6.604,2.707c2.41-0.013,4.821-0.923,6.666-2.757c3.666-3.661,3.691-9.565,0.038-13.199l-24.82-24.681
		h84.027c5.198,0,9.416-4.194,9.416-9.363c0-5.169-4.218-9.364-9.416-9.364H41.329L66.162,37.93
		c3.641-3.608,3.604-9.513-0.076-13.159C64.241,22.936,61.831,22.012,59.433,22L59.433,22z"/>
</g>
</svg>
